HIERARCHY
ROOT root
{
	OFFSET	0	13.1	24.9
	CHANNELS 6  Xposition Yposition Zposition Xrotation Yrotation Zrotation
	JOINT spine_1
	{
		OFFSET	0	9.99999	0
		CHANNELS 3  Xrotation Yrotation Zrotation
		JOINT spine_2
		{
			OFFSET	0	112	-10
			CHANNELS 3  Xrotation Yrotation Zrotation
			JOINT spine_3
			{
				OFFSET	0	206.5	19.3
				CHANNELS 3  Xrotation Yrotation Zrotation
				JOINT spine_4
				{
					OFFSET	0	110.4	14.6
					CHANNELS 3  Xrotation Yrotation Zrotation
					JOINT neck_1
					{
						OFFSET	0	71.8	-50.3
						CHANNELS 3  Xrotation Yrotation Zrotation
						JOINT neck_2
						{
							OFFSET	0	86.2	-25.8
							CHANNELS 3  Xrotation Yrotation Zrotation
							JOINT head_ee
							{
								OFFSET	0	179.8	-8.7
								CHANNELS 3  Xrotation Yrotation Zrotation
								End Site
								{
									OFFSET	1	0	0
								}
							}
						}
					}
					JOINT left_clavicle
					{
						OFFSET	-43.2	22.4	-70.8
						CHANNELS 3  Xrotation Yrotation Zrotation
						JOINT left_shoulder
						{
							OFFSET	-93.9	-5.79999	48.7
							CHANNELS 3  Xrotation Yrotation Zrotation
							JOINT left_elbow
							{
								OFFSET	-291.4	-30.8	15.2
								CHANNELS 3  Xrotation Yrotation Zrotation
								JOINT left_lowarm_twist
								{
									OFFSET	-110.7	-3.89999	13.6
									CHANNELS 3  Xrotation Yrotation Zrotation
									JOINT left_hand
									{
										OFFSET	-110.7	-3.89999	13.6
										CHANNELS 3  Xrotation Yrotation Zrotation
										JOINT left_ee
										{
											OFFSET	-80.8	-5.10001	12.1
											CHANNELS 3  Xrotation Yrotation Zrotation
											End Site
											{
												OFFSET	1	0	0
											}
										}
									}
								}
							}
						}
					}
					JOINT right_clavicle
					{
						OFFSET	43.2	22.4	-70.8
						CHANNELS 3  Xrotation Yrotation Zrotation
						JOINT right_shoulder
						{
							OFFSET	93.9	-5.79999	48.7
							CHANNELS 3  Xrotation Yrotation Zrotation
							JOINT right_elbow
							{
								OFFSET	291.4	-30.8	15.2
								CHANNELS 3  Xrotation Yrotation Zrotation
								JOINT right_lowarm_twist
								{
									OFFSET	110.7	-3.89999	13.6
									CHANNELS 3  Xrotation Yrotation Zrotation
									JOINT right_hand
									{
										OFFSET	110.7	-3.89999	13.6
										CHANNELS 3  Xrotation Yrotation Zrotation
										JOINT right_ee
										{
											OFFSET	80.8	-5.10001	12.1
											CHANNELS 3  Xrotation Yrotation Zrotation
											End Site
											{
												OFFSET	1	0	0
											}
										}
									}
								}
							}
						}
					}
				}
			}
		}
	}
	JOINT left_hip
	{
		OFFSET	-82.8	-127.5	0.300001
		CHANNELS 3  Xrotation Yrotation Zrotation
		JOINT left_knee
		{
			OFFSET	-28.2	-396.7	2.2
			CHANNELS 3  Xrotation Yrotation Zrotation
			JOINT left_ankle
			{
				OFFSET	-11.7	-411.3	35.4
				CHANNELS 3  Xrotation Yrotation Zrotation
				JOINT left_toes
				{
					OFFSET	0	-60	-88.6
					CHANNELS 3  Xrotation Yrotation Zrotation
					JOINT left_foot_ee
					{
						OFFSET	-22.5	-16.5	-42.2
						CHANNELS 3  Xrotation Yrotation Zrotation
						End Site
						{
							OFFSET	1	0	0
						}
					}
				}
			}
		}
	}
	JOINT right_hip
	{
		OFFSET	82.8	-127.5	0.300001
		CHANNELS 3  Xrotation Yrotation Zrotation
		JOINT right_knee
		{
			OFFSET	28.2	-396.7	2.2
			CHANNELS 3  Xrotation Yrotation Zrotation
			JOINT right_ankle
			{
				OFFSET	11.7	-411.3	35.4
				CHANNELS 3  Xrotation Yrotation Zrotation
				JOINT right_toes
				{
					OFFSET	0	-60	-88.6
					CHANNELS 3  Xrotation Yrotation Zrotation
					JOINT right_foot_ee
					{
						OFFSET	22.5	-16.5	-42.2
						CHANNELS 3  Xrotation Yrotation Zrotation
						End Site
						{
							OFFSET	1	0	0
						}
					}
				}
			}
		}
	}
}
MOTION
Frames: 7
Frame Time: 0.02
2439.85 611.998 -970.373 -35.3808 41.7199 25.2481 8.92802 -0.00494708 1.28684 8.92894 -0.0868152 1.28392 8.92528 -0.158549 1.27705 8.923 0.0451097 1.28606 -10.0822 4.27699 -4.71557 -10.0529 11.2314 -3.53008 -0.0 0.0 -0.0 3.21035 2.35715 6.33175 -10.4836 -33.4885 51.1123 1.50868 -36.7704 0.501466 -77.8406 -7.5473 5.30361 -7.2901 19.5857 -39.0579 -0.0 0.0 -0.0 10.6228 5.75496 -21.1751 51.8377 -69.1149 2.62709 0.198184 5.60716 -0.0097053 72.6741 3.02246 8.1441 -1.1788 14.5505 14.238 0.0 0.0 0.0 13.4635 24.2559 6.52 -13.0312 0.313565 1.97094 39.7325 -11.4799 -5.03983 -10.8709 0.0 0.0 -0.0 0.0 -0.0 59.6367 -0.709337 -10.8524 -7.3571 -0.232262 -1.10443 8.19401 -5.17623 1.17321 -13.0212 0.0 0.0 0.0 0.0 0.0 
2407.49 610.292 -980.058 -35.1626 41.7696 24.5102 9.14866 0.100434 1.2162 9.14949 0.0228461 1.22012 9.14834 -0.0407128 1.21966 9.1463 0.152406 1.21078 -11.6353 5.49801 -5.67452 -11.6359 14.0926 -3.95695 -0.0 0.0 -0.0 2.50294 3.49977 5.07706 -9.80564 -34.5627 55.1405 1.37203 -34.2006 0.422117 -74.8815 -7.16973 5.31932 -8.98018 23.4999 -49.1769 -0.0 0.0 -0.0 10.5284 6.11111 -20.9772 53.5662 -68.6945 3.06301 0.204785 5.79266 -0.0103608 73.4209 3.10285 8.19629 -1.46625 16.2583 16.9487 0.0 0.0 0.0 12.2519 26.3212 7.24935 -15.3181 0.322013 2.32169 38.9915 -14.5922 -5.06279 -9.45879 0.0 0.0 -0.0 0.0 -0.0 61.6151 -1.14491 -10.0238 -16.5966 -0.320634 -2.51785 8.16223 1.31961 1.18297 -13.4419 0.0 0.0 0.0 0.0 0.0 
2386.39 608.055 -997.366 -33.7104 42.5859 23.6363 8.8161 0.0474166 1.28381 8.81702 -0.034365 1.28423 8.81454 -0.10866 1.28009 8.81227 0.0948527 1.28118 -12.9506 5.08951 -4.67433 -12.9884 12.6117 -2.95212 -0.0 0.0 -0.0 2.37598 2.93034 4.79875 -10.1592 -34.128 55.7929 1.27326 -32.2396 0.367998 -75.371 -7.23226 5.31808 -7.02159 16.0049 -40.3868 -0.0 0.0 -0.0 11.2933 8.23299 -22.6827 57.3707 -69.5339 6.22041 0.213781 6.0453 -0.0112885 74.1881 3.18614 8.24881 -1.61688 16.7748 18.2159 0.0 0.0 0.0 12.0571 22.2374 6.55157 -18.9128 0.306991 2.87293 39.0254 -12.7341 -5.01087 -5.18961 0.0 0.0 -0.0 0.0 -0.0 61.3823 0.335945 -10.0882 -21.6121 -0.273 -3.28568 6.96383 7.26708 1.03668 -6.20445 0.0 0.0 0.0 0.0 0.0 
2356.18 609.275 -1014.43 -33.5347 42.9206 23.3596 8.78294 0.112211 1.26632 8.78383 0.0314118 1.27089 8.78284 -0.0429075 1.27055 8.78062 0.158275 1.26139 -13.0927 6.90226 -5.81289 -13.1799 16.7605 -3.46902 -0.0 0.0 -0.0 2.25951 3.72634 4.64015 -12.248 -34.354 56.3416 1.1649 -29.9863 0.311994 -80.9055 -7.9366 5.26663 -7.3768 13.9847 -45.5602 -0.0 0.0 -0.0 11.0496 4.70208 -22.0722 58.0662 -67.237 5.69872 0.20182 5.70934 -0.0100636 75.0408 3.27952 8.30588 -2.34811 10.3349 20.6707 0.0 0.0 0.0 12.1051 18.5782 6.67209 -21.796 0.269976 3.31374 38.5233 -11.3826 -4.92977 -2.73812 0.0 0.0 -0.0 0.0 -0.0 60.7759 1.71664 -9.69583 -23.5197 -0.237269 -3.5762 5.59985 7.6454 0.838965 -3.24631 0.0 0.0 0.0 0.0 0.0 
2326.25 607.231 -1027.72 -32.9907 41.6369 22.3221 8.96584 0.177207 1.19165 8.96663 0.101026 1.20051 8.96719 0.0345922 1.20425 8.96524 0.224334 1.18368 -11.6021 7.55315 -6.43043 -11.6448 18.4695 -4.11359 -0.0 0.0 -0.0 1.6061 5.89003 3.61228 -12.709 -33.988 58.9398 1.08701 -28.3005 0.27406 -78.2696 -7.60192 5.2997 -7.23343 13.6645 -44.5525 -0.0 0.0 -0.0 11.0734 5.1007 -22.1363 62.6629 -67.7701 9.15463 0.224126 6.33549 -0.012404 76.0419 3.39021 8.37109 -1.81665 11.2412 17.282 0.0 0.0 0.0 13.2151 18.0705 6.4268 -25.9805 0.176919 3.94899 38.1478 -10.4806 -4.87362 0.738554 -0.0 -0.0 -0.0 0.0 -0.0 60.1435 2.44224 -9.8207 -25.8698 -0.179978 -3.93228 6.99676 7.24703 1.04137 0.822991 -0.0 -0.0 0.0 0.0 0.0 
2297.26 606.688 -1035.12 -33.0004 41.5664 21.7471 9.13867 0.189977 1.25328 9.13953 0.109848 1.26283 9.1402 0.0437886 1.26684 9.13804 0.243297 1.24403 -12.0057 6.8322 -6.59889 -12.0338 17.191 -4.41788 -0.0 0.0 -0.0 1.10383 8.58207 2.95508 -11.7383 -33.8177 62.1504 1.04179 -27.2964 0.252971 -78.7203 -7.65927 5.29515 -6.59484 13.2756 -39.3074 -0.0 0.0 -0.0 10.9043 7.61646 -21.8183 63.562 -69.0627 7.81978 0.260312 7.34795 -0.0167148 77.9414 3.60332 8.48949 -3.52891 4.45688 26.6053 0.0 0.0 0.0 13.6353 16.7526 7.54681 -27.6924 0.125513 4.20668 38.6021 -10.404 -4.91292 0.779205 -0.0 -0.0 -0.0 0.0 -0.0 58.9293 3.49674 -8.69086 -28.2852 -0.105916 -4.29556 18.9671 5.5447 2.66746 -2.18156 0.0 0.0 0.0 0.0 0.0 
2263.63 613.988 -1048.59 -32.7378 40.96 20.0437 9.12376 0.227829 1.43373 9.1249 0.136145 1.44532 9.12603 0.0601753 1.45047 9.12321 0.288471 1.42277 -11.2972 8.75119 -7.85497 -11.3245 21.6759 -5.21819 -0.0 0.0 -0.0 1.13846 11.7726 3.30541 -12.7018 -33.3012 63.4381 0.814474 -21.9723 0.158116 -85.1741 -8.47368 5.18027 -7.04236 16.1111 -40.4598 -0.0 0.0 -0.0 10.7541 4.38831 -21.4237 64.0954 -67.5225 5.8059 0.244741 6.91284 -0.0147823 77.0706 3.50514 8.43609 -2.73022 11.2604 23.8594 0.0 0.0 0.0 18.0158 14.8111 7.81808 -37.0015 -0.287107 5.57392 36.9403 -7.91025 -4.70734 4.87313 -0.0 -0.0 -0.0 0.0 -0.0 55.3084 3.1078 -6.71532 -26.8533 -0.151673 -4.08056 24.1579 8.75232 3.35378 -4.83915 0.0 0.0 0.0 0.0 0.0 
